# xmcd
#
# Track frame offsets:
#	150
#	14836
#	31301
#	47273
#	61095
#	75803
#	93249
#	108529
#	130797
#	146224
#	164600
#
# Disc length: 2457 seconds
#
# Revision: 0
# Processed by: cddbd v1.5PL3 Copyright (c) Steve Scherf et al.
# Submitted via: audiograbber 1.83.01
#
DISCID=8709970b
DTITLE=Buddy Miller - Cruel Moon
DYEAR=1999
DGENRE=Country
TTITLE0=Does My Ring Burn Your Finger
TTITLE1=Love Match
TTITLE2=I'm Gonna Be Strong
TTITLE3=Looking For A Heartache Like You
TTITLE4=Cruel Moon
TTITLE5=Somewhere Trouble Don't Go
TTITLE6=In Memory Of My Heart
TTITLE7=Sometimes I Cry
TTITLE8=I'm Too Used To Lovin' You
TTITLE9=I'm Not Getting Any Better At Goodbye
TTITLE10=It's Been A Change
EXTD=Hightone Records
EXTT0=
EXTT1=
EXTT2=
EXTT3=
EXTT4=
EXTT5=
EXTT6=
EXTT7=
EXTT8=
EXTT9=
EXTT10=
PLAYORDER=
